<svg width="75" height="75" viewBox="0 0 75 75" fill="none" xmlns="http://www.w3.org/2000/svg">
<g clip-path="url(#clip0_8_2)">
<path fill-rule="evenodd" clip-rule="evenodd" d="M5.35714 8.03571C2.39847 8.03571 0 10.4342 0 13.3929V56.25C0 59.2087 2.39847 61.6071 5.35714 61.6071H28.1866L24.9723 69.6429H21.4286C19.9492 69.6429 18.75 70.8421 18.75 72.3214C18.75 73.8008 19.9492 75 21.4286 75H26.7211C26.7638 75.001 26.8063 75.001 26.8488 75H48.1513C48.1938 75.001 48.2364 75.001 48.279 75H53.5714C55.0508 75 56.25 73.8008 56.25 72.3214C56.25 70.8421 55.0508 69.6429 53.5714 69.6429H50.0278L46.8135 61.6071H69.6429C72.6015 61.6071 75 59.2087 75 56.25V13.3929C75 10.4342 72.6015 8.03571 69.6429 8.03571H5.35714ZM44.258 69.6429L41.0437 61.6071H33.9564L30.7421 69.6429H44.258ZM42.7973 56.25C42.8368 56.2491 42.8762 56.2491 42.9155 56.25H69.6429V13.3929H5.35714V56.25H32.0846C32.124 56.2491 32.1634 56.2491 32.2028 56.25H42.7973Z" fill="#080878"/>
</g>
<defs>
<clipPath id="clip0_8_2">
<rect width="75" height="75" fill="white"/>
</clipPath>
</defs>
</svg>
