<svg width="108" height="97" viewBox="0 0 108 97" fill="none" xmlns="http://www.w3.org/2000/svg">
<path d="M19.9195 82.453L12.3392 6.0625H95.6613L88.0709 82.4409L53.9496 90.9375L19.9195 82.453Z" fill="#1572B6"/>
<path d="M54 84.4445L81.5738 77.5788L88.0605 12.3099H54V84.4445Z" fill="#33A9DC"/>
<path d="M54 39.9852H67.8038L68.7555 30.3913H54V21.0217H80.1562L79.9065 23.5346L77.3449 49.3548H54V39.9852V39.9852Z" fill="white"/>
<path d="M54.0642 64.3171L54.0169 64.3292L42.4002 61.5101L41.6577 54.0381H31.1851L32.6464 68.7487L54.0136 74.0777L54.0642 74.0656V64.3171V64.3171Z" fill="#EBEBEB"/>
<path d="M66.9162 48.9577L65.6607 61.5041L54.027 64.3231V74.0716L75.411 68.7488L75.5697 67.1665L77.382 48.9577H66.9162V48.9577Z" fill="white"/>
<path d="M54.0371 21.0217V30.3913H28.8394L28.6301 28.2846L28.1542 23.5346L27.9045 21.0217H54.0371V21.0217Z" fill="#EBEBEB"/>
<path d="M53.9996 39.9852V49.3548H42.5279L42.3187 47.2481L41.8462 42.4981L41.5964 39.9852H53.9996V39.9852Z" fill="#EBEBEB"/>
</svg>
