<svg width="506" height="511" viewBox="0 0 506 511" fill="none" xmlns="http://www.w3.org/2000/svg">
<g opacity="0.15">
<path d="M275.913 161.893L114.107 71.1834V65.832L275.913 156.541V161.893ZM275.913 161.893L114.107 71.1834V65.832L275.913 156.541V161.893Z" fill="#6088FF"/>
<path d="M154.378 58.0701L104.372 29.9807V24.6293L154.378 52.7187V58.0701ZM154.378 58.0701L104.372 29.9807V24.6293L154.378 52.7187V58.0701Z" fill="#6088FF"/>
<path d="M449.032 184.87L287.225 94.1606V88.8092L449.032 179.519V184.87ZM449.032 184.87L287.225 94.1606V88.8092L449.032 179.519V184.87Z" fill="#6088FF"/>
<g opacity="0.96922">
<path opacity="0.96922" d="M249.336 61.3357L187.621 26.7151V21.3637L249.336 55.9843V61.3357ZM249.336 61.3357L187.621 26.7151V21.3637L249.336 55.9843V61.3357Z" fill="#6088FF"/>
</g>
<path d="M417.671 319.71L215.38 206.108V200.757L417.671 314.359V319.71ZM417.671 319.71L215.38 206.108V200.757L417.671 314.359V319.71Z" fill="#6088FF"/>
<path d="M393.92 236.603L332.206 201.981V196.63L393.92 231.251V236.603ZM393.92 236.603L332.206 201.981V196.63L393.92 231.251V236.603Z" fill="#6088FF"/>
<path d="M505.612 288.138L332.206 190.834V185.482L505.612 282.786V288.138ZM505.612 288.138L332.206 190.834V185.482L505.612 282.786V288.138Z" fill="#6088FF"/>
</g>
<path d="M323.005 346.909L328.982 463.425C329.028 464.323 329.518 465.142 330.297 465.625C332.186 466.797 334.662 465.489 334.681 463.31L335.702 347.644C335.714 346.236 334.64 345.043 333.204 344.869L326.205 344.019C324.447 343.806 322.917 345.188 323.005 346.909ZM323.005 346.909L328.982 463.425C329.028 464.323 329.518 465.142 330.297 465.625C332.186 466.797 334.662 465.489 334.681 463.31L335.702 347.644C335.714 346.236 334.64 345.043 333.204 344.869L326.205 344.019C324.447 343.806 322.917 345.188 323.005 346.909Z" fill="#36E7F7"/>
<path d="M334.637 344.877L332.091 464.513C332.091 466.896 337.416 466.351 339.397 464.949L339.795 464.667C340.528 464.149 340.98 463.336 341.026 462.456L347.079 346.503C347.153 345.096 346.182 343.84 344.773 343.518L338.322 342.039C336.44 341.608 334.637 342.996 334.637 344.877ZM334.637 344.877L332.091 464.513C332.091 466.896 337.416 466.351 339.397 464.949L339.795 464.667C340.528 464.149 340.98 463.336 341.026 462.456L347.079 346.503C347.153 345.096 346.182 343.84 344.773 343.518L338.322 342.039C336.44 341.608 334.637 342.996 334.637 344.877Z" fill="#88F7FF"/>
<path d="M396.159 313.532L400.543 315.151V320.266H396.159V313.532ZM396.159 313.532L400.543 315.151V320.266H396.159V313.532Z" fill="#0B246E"/>
<path d="M268.722 378.36L73.3049 268.034L186.142 209.967C193.805 206.024 203.016 206.2 210.513 210.433L398.035 316.302C401.473 318.243 401.375 323.104 397.862 324.912L293.093 378.826C285.431 382.769 276.22 382.593 268.722 378.36ZM268.722 378.36L73.3049 268.034L186.142 209.967C193.805 206.024 203.016 206.2 210.513 210.433L398.035 316.302C401.473 318.243 401.375 323.104 397.862 324.912L293.093 378.826C285.431 382.769 276.22 382.593 268.722 378.36Z" fill="#0B246E"/>
<path d="M268.71 372.646L73.2927 262.32L186.13 204.253C193.793 200.31 203.004 200.486 210.501 204.719L398.023 310.587C401.461 312.528 401.364 317.388 397.85 319.197L293.081 373.112C285.419 377.055 276.208 376.879 268.71 372.646ZM268.71 372.646L73.2927 262.32L186.13 204.253C193.793 200.31 203.004 200.486 210.501 204.719L398.023 310.587C401.461 312.528 401.364 317.388 397.85 319.197L293.081 373.112C285.419 377.055 276.208 376.879 268.71 372.646Z" fill="#88F7FF"/>
<path d="M267.825 299.922L267.817 302.367L234.333 321.294L234.341 318.849L267.825 299.922ZM267.825 299.922L267.817 302.367L234.333 321.294L234.341 318.849L267.825 299.922Z" fill="#D7ECFA"/>
<path d="M234.341 318.849L234.333 321.294L160.22 279.674L160.228 277.229L234.341 318.849ZM234.341 318.849L234.333 321.294L160.22 279.674L160.228 277.229L234.341 318.849Z" fill="#D7ECFA"/>
<path d="M267.826 299.922L234.342 318.849L160.229 277.229L193.713 258.302L267.826 299.922ZM267.826 299.922L234.342 318.849L160.229 277.229L193.713 258.302L267.826 299.922Z" fill="#EEF8FC"/>
<path d="M198.238 263.065L198.235 264.498L193.602 267.118L193.606 265.684L198.238 263.065ZM198.238 263.065L198.235 264.498L193.602 267.118L193.606 265.684L198.238 263.065Z" fill="#D7ECFA"/>
<path d="M193.606 265.684L193.602 267.118L189.031 264.55L189.035 263.117L193.606 265.684ZM193.606 265.684L193.602 267.118L189.031 264.55L189.035 263.117L193.606 265.684Z" fill="#D7ECFA"/>
<path d="M198.239 263.065L193.607 265.684L189.035 263.117L193.667 260.499L198.239 263.065ZM198.239 263.065L193.607 265.684L189.035 263.117L193.667 260.499L198.239 263.065Z" fill="white"/>
<path d="M204.102 266.359L204.098 267.792L199.464 270.41L199.469 268.977L204.102 266.359ZM204.102 266.359L204.098 267.792L199.464 270.41L199.469 268.977L204.102 266.359Z" fill="#D7ECFA"/>
<path d="M199.469 268.977L199.465 270.41L194.894 267.844L194.899 266.411L199.469 268.977ZM199.469 268.977L199.465 270.41L194.894 267.844L194.899 266.411L199.469 268.977Z" fill="#D7ECFA"/>
<path d="M204.103 266.359L199.47 268.977L194.9 266.411L199.532 263.791L204.103 266.359ZM204.103 266.359L199.47 268.977L194.9 266.411L199.532 263.791L204.103 266.359Z" fill="white"/>
<path d="M209.953 269.645L209.95 271.078L205.317 273.696L205.321 272.264L209.953 269.645ZM209.953 269.645L209.95 271.078L205.317 273.696L205.321 272.264L209.953 269.645Z" fill="#D7ECFA"/>
<path d="M205.321 272.264L205.317 273.697L200.746 271.13L200.75 269.697L205.321 272.264ZM205.321 272.264L205.317 273.697L200.746 271.13L200.75 269.697L205.321 272.264Z" fill="#D7ECFA"/>
<path d="M209.954 269.645L205.322 272.264L200.75 269.697L205.384 267.077L209.954 269.645ZM209.954 269.645L205.322 272.264L200.75 269.697L205.384 267.077L209.954 269.645Z" fill="white"/>
<path d="M215.806 272.93L215.802 274.364L211.169 276.983L211.172 275.55L215.806 272.93ZM215.806 272.93L215.802 274.364L211.169 276.983L211.172 275.55L215.806 272.93Z" fill="#D7ECFA"/>
<path d="M211.172 275.55L211.169 276.983L206.599 274.416L206.602 272.982L211.172 275.55ZM211.172 275.55L211.169 276.983L206.599 274.416L206.602 272.982L211.172 275.55Z" fill="#D7ECFA"/>
<path d="M215.806 272.93L211.173 275.55L206.602 272.982L211.236 270.364L215.806 272.93ZM215.806 272.93L211.173 275.55L206.602 272.982L211.236 270.364L215.806 272.93Z" fill="white"/>
<path d="M221.668 276.224L221.665 277.657L217.033 280.276L217.036 278.842L221.668 276.224ZM221.668 276.224L221.665 277.657L217.033 280.276L217.036 278.842L221.668 276.224Z" fill="#D7ECFA"/>
<path d="M217.036 278.842L217.033 280.276L212.461 277.709L212.466 276.276L217.036 278.842ZM217.036 278.842L217.033 280.276L212.461 277.709L212.466 276.276L217.036 278.842Z" fill="#D7ECFA"/>
<path d="M221.669 276.224L217.037 278.842L212.467 276.276L217.099 273.657L221.669 276.224ZM221.669 276.224L217.037 278.842L212.467 276.276L217.099 273.657L221.669 276.224Z" fill="white"/>
<path d="M227.522 279.51L227.517 280.943L222.884 283.562L222.889 282.129L227.522 279.51ZM227.522 279.51L227.517 280.943L222.884 283.562L222.889 282.129L227.522 279.51Z" fill="#D7ECFA"/>
<path d="M222.889 282.129L222.884 283.562L218.314 280.995L218.318 279.562L222.889 282.129ZM222.889 282.129L222.884 283.562L218.314 280.995L218.318 279.562L222.889 282.129Z" fill="#D7ECFA"/>
<path d="M227.523 279.51L222.889 282.129L218.319 279.562L222.951 276.942L227.523 279.51ZM227.523 279.51L222.889 282.129L218.319 279.562L222.951 276.942L227.523 279.51Z" fill="white"/>
<path d="M233.373 282.797L233.369 284.229L228.736 286.849L228.741 285.415L233.373 282.797ZM233.373 282.797L233.369 284.229L228.736 286.849L228.741 285.415L233.373 282.797Z" fill="#D7ECFA"/>
<path d="M228.741 285.415L228.736 286.849L224.166 284.281L224.169 282.849L228.741 285.415ZM228.741 285.415L228.736 286.849L224.166 284.281L224.169 282.849L228.741 285.415Z" fill="#D7ECFA"/>
<path d="M233.373 282.797L228.741 285.415L224.17 282.849L228.803 280.23L233.373 282.797ZM233.373 282.797L228.741 285.415L224.17 282.849L228.803 280.23L233.373 282.797Z" fill="white"/>
<path d="M239.237 286.089L239.232 287.523L234.6 290.141L234.604 288.707L239.237 286.089ZM239.237 286.089L239.232 287.523L234.6 290.141L234.604 288.707L239.237 286.089Z" fill="#D7ECFA"/>
<path d="M234.604 288.707L234.6 290.141L230.018 287.568L230.021 286.135L234.604 288.707ZM234.604 288.707L234.6 290.141L230.018 287.568L230.021 286.135L234.604 288.707Z" fill="#D7ECFA"/>
<path d="M239.237 286.089L234.604 288.707L230.022 286.135L234.655 283.515L239.237 286.089ZM239.237 286.089L234.604 288.707L230.022 286.135L234.655 283.515L239.237 286.089Z" fill="white"/>
<path d="M245.089 289.375L245.084 290.809L240.451 293.428L240.456 291.994L245.089 289.375ZM245.089 289.375L245.084 290.809L240.451 293.428L240.456 291.994L245.089 289.375Z" fill="#D7ECFA"/>
<path d="M240.456 291.994L240.451 293.428L235.881 290.861L235.885 289.427L240.456 291.994ZM240.456 291.994L240.451 293.428L235.881 290.861L235.885 289.427L240.456 291.994Z" fill="#D7ECFA"/>
<path d="M245.09 289.375L240.456 291.994L235.886 289.427L240.518 286.809L245.09 289.375ZM245.09 289.375L240.456 291.994L235.886 289.427L240.518 286.809L245.09 289.375Z" fill="white"/>
<path d="M250.94 292.662L250.936 294.096L246.303 296.714L246.308 295.28L250.94 292.662ZM250.94 292.662L250.936 294.096L246.303 296.714L246.308 295.28L250.94 292.662Z" fill="#D7ECFA"/>
<path d="M246.308 295.28L246.303 296.714L241.733 294.146L241.736 292.714L246.308 295.28ZM246.308 295.28L246.303 296.714L241.733 294.146L241.736 292.714L246.308 295.28Z" fill="#D7ECFA"/>
<path d="M250.94 292.662L246.308 295.28L241.737 292.714L246.37 290.095L250.94 292.662ZM250.94 292.662L246.308 295.28L241.737 292.714L246.37 290.095L250.94 292.662Z" fill="white"/>
<path d="M262.656 299.241L262.651 300.674L258.018 303.293L258.023 301.86L262.656 299.241ZM262.656 299.241L262.651 300.674L258.018 303.293L258.023 301.86L262.656 299.241Z" fill="#D7ECFA"/>
<path d="M258.023 301.86L258.018 303.293L247.585 297.434L247.589 296L258.023 301.86ZM258.023 301.86L258.018 303.293L247.585 297.434L247.589 296L258.023 301.86Z" fill="#D7ECFA"/>
<path d="M262.657 299.241L258.023 301.86L247.589 296L252.222 293.381L262.657 299.241ZM262.657 299.241L258.023 301.86L247.589 296L252.222 293.381L262.657 299.241Z" fill="white"/>
<path d="M198.197 269.697L198.192 271.13L193.56 273.748L193.564 272.316L198.197 269.697ZM198.197 269.697L198.192 271.13L193.56 273.748L193.564 272.316L198.197 269.697Z" fill="#D7ECFA"/>
<path d="M193.564 272.316L193.56 273.749L183.126 267.889L183.129 266.456L193.564 272.316ZM193.564 272.316L193.56 273.749L183.126 267.889L183.129 266.456L193.564 272.316Z" fill="#D7ECFA"/>
<path d="M198.197 269.697L193.564 272.316L183.13 266.456L187.763 263.837L198.197 269.697ZM198.197 269.697L193.564 272.316L183.13 266.456L187.763 263.837L198.197 269.697Z" fill="white"/>
<path d="M204.048 272.982L204.044 274.416L199.411 277.035L199.416 275.602L204.048 272.982ZM204.048 272.982L204.044 274.416L199.411 277.035L199.416 275.602L204.048 272.982Z" fill="#D7ECFA"/>
<path d="M199.416 275.602L199.411 277.035L194.841 274.468L194.846 273.034L199.416 275.602ZM199.416 275.602L199.411 277.035L194.841 274.468L194.846 273.034L199.416 275.602Z" fill="#D7ECFA"/>
<path d="M204.049 272.982L199.416 275.602L194.846 273.034L199.478 270.416L204.049 272.982ZM204.049 272.982L199.416 275.602L194.846 273.034L199.478 270.416L204.049 272.982Z" fill="white"/>
<path d="M209.9 276.269L209.897 277.703L205.263 280.321L205.268 278.887L209.9 276.269ZM209.9 276.269L209.897 277.703L205.263 280.321L205.268 278.887L209.9 276.269Z" fill="#D7ECFA"/>
<path d="M205.268 278.887L205.263 280.321L200.693 277.755L200.696 276.321L205.268 278.887ZM205.268 278.887L205.263 280.321L200.693 277.755L200.696 276.321L205.268 278.887Z" fill="#D7ECFA"/>
<path d="M209.9 276.269L205.268 278.887L200.697 276.321L205.33 273.702L209.9 276.269ZM209.9 276.269L205.268 278.887L200.697 276.321L205.33 273.702L209.9 276.269Z" fill="white"/>
<path d="M215.764 279.562L215.759 280.995L211.127 283.615L211.131 282.181L215.764 279.562ZM215.764 279.562L215.759 280.995L211.127 283.615L211.131 282.181L215.764 279.562Z" fill="#D7ECFA"/>
<path d="M211.131 282.181L211.127 283.615L206.556 281.047L206.561 279.614L211.131 282.181ZM211.131 282.181L211.127 283.615L206.556 281.047L206.561 279.614L211.131 282.181Z" fill="#D7ECFA"/>
<path d="M215.765 279.562L211.132 282.181L206.561 279.614L211.193 276.994L215.765 279.562ZM215.765 279.562L211.132 282.181L206.561 279.614L211.193 276.994L215.765 279.562Z" fill="white"/>
<path d="M221.615 282.849L221.611 284.281L216.978 286.9L216.983 285.467L221.615 282.849ZM221.615 282.849L221.611 284.281L216.978 286.9L216.983 285.467L221.615 282.849Z" fill="#D7ECFA"/>
<path d="M216.983 285.467L216.978 286.9L212.408 284.333L212.412 282.901L216.983 285.467ZM216.983 285.467L216.978 286.9L212.408 284.333L212.412 282.901L216.983 285.467Z" fill="#D7ECFA"/>
<path d="M221.615 282.849L216.983 285.467L212.412 282.901L217.045 280.282L221.615 282.849ZM221.615 282.849L216.983 285.467L212.412 282.901L217.045 280.282L221.615 282.849Z" fill="white"/>
<path d="M227.467 286.135L227.464 287.568L222.83 290.186L222.835 288.753L227.467 286.135ZM227.467 286.135L227.464 287.568L222.83 290.186L222.835 288.753L227.467 286.135Z" fill="#D7ECFA"/>
<path d="M222.835 288.753L222.83 290.186L218.26 287.62L218.264 286.187L222.835 288.753ZM222.835 288.753L222.83 290.186L218.26 287.62L218.264 286.187L222.835 288.753Z" fill="#D7ECFA"/>
<path d="M227.468 286.135L222.836 288.753L218.264 286.187L222.897 283.567L227.468 286.135ZM227.468 286.135L222.836 288.753L218.264 286.187L222.897 283.567L227.468 286.135Z" fill="white"/>
<path d="M233.331 289.427L233.326 290.861L228.694 293.48L228.698 292.046L233.331 289.427ZM233.331 289.427L233.326 290.861L228.694 293.48L228.698 292.046L233.331 289.427Z" fill="#D7ECFA"/>
<path d="M228.698 292.046L228.694 293.48L224.112 290.906L224.116 289.472L228.698 292.046ZM228.698 292.046L228.694 293.48L224.112 290.906L224.116 289.472L228.698 292.046Z" fill="#D7ECFA"/>
<path d="M233.332 289.427L228.698 292.046L224.116 289.472L228.749 286.854L233.332 289.427ZM233.332 289.427L228.698 292.046L224.116 289.472L228.749 286.854L233.332 289.427Z" fill="white"/>
<path d="M239.183 292.714L239.179 294.146L234.545 296.766L234.55 295.332L239.183 292.714ZM239.183 292.714L239.179 294.146L234.545 296.766L234.55 295.332L239.183 292.714Z" fill="#D7ECFA"/>
<path d="M234.55 295.332L234.545 296.766L229.975 294.198L229.98 292.766L234.55 295.332ZM234.55 295.332L234.545 296.766L229.975 294.198L229.98 292.766L234.55 295.332Z" fill="#D7ECFA"/>
<path d="M239.184 292.714L234.551 295.332L229.981 292.766L234.613 290.147L239.184 292.714ZM239.184 292.714L234.551 295.332L229.981 292.766L234.613 290.147L239.184 292.714Z" fill="white"/>
<path d="M245.034 296L245.031 297.434L240.398 300.053L240.402 298.619L245.034 296ZM245.034 296L245.031 297.434L240.398 300.053L240.402 298.619L245.034 296Z" fill="#D7ECFA"/>
<path d="M240.402 298.619L240.397 300.053L235.827 297.485L235.831 296.052L240.402 298.619ZM240.402 298.619L240.397 300.053L235.827 297.485L235.831 296.052L240.402 298.619Z" fill="#D7ECFA"/>
<path d="M245.035 296L240.403 298.619L235.831 296.052L240.464 293.434L245.035 296ZM245.035 296L240.403 298.619L235.831 296.052L240.464 293.434L245.035 296Z" fill="white"/>
<path d="M250.898 299.292L250.894 300.726L246.262 303.345L246.265 301.912L250.898 299.292ZM250.898 299.292L250.894 300.726L246.262 303.345L246.265 301.912L250.898 299.292Z" fill="#D7ECFA"/>
<path d="M246.265 301.912L246.262 303.345L241.679 300.771L241.683 299.338L246.265 301.912ZM246.265 301.912L246.262 303.345L241.679 300.771L241.683 299.338L246.265 301.912Z" fill="#D7ECFA"/>
<path d="M250.899 299.292L246.265 301.912L241.683 299.338L246.317 296.72L250.899 299.292ZM250.899 299.292L246.265 301.912L241.683 299.338L246.317 296.72L250.899 299.292Z" fill="white"/>
<path d="M256.75 302.579L256.746 304.013L252.114 306.631L252.117 305.198L256.75 302.579ZM256.75 302.579L256.746 304.013L252.114 306.631L252.117 305.198L256.75 302.579Z" fill="#D7ECFA"/>
<path d="M252.117 305.198L252.114 306.631L247.542 304.065L247.547 302.631L252.117 305.198ZM252.117 305.198L252.114 306.631L247.542 304.065L247.547 302.631L252.117 305.198Z" fill="#D7ECFA"/>
<path d="M256.751 302.579L252.118 305.198L247.548 302.631L252.18 300.012L256.751 302.579ZM256.751 302.579L252.118 305.198L247.548 302.631L252.18 300.012L256.751 302.579Z" fill="white"/>
<path d="M192.29 273.034L192.286 274.468L187.654 277.087L187.658 275.653L192.29 273.034ZM192.29 273.034L192.286 274.468L187.654 277.087L187.658 275.653L192.29 273.034Z" fill="#D7ECFA"/>
<path d="M187.658 275.653L187.654 277.087L177.22 271.227L177.224 269.794L187.658 275.653ZM187.658 275.653L187.654 277.087L177.22 271.227L177.224 269.794L187.658 275.653Z" fill="#D7ECFA"/>
<path d="M192.29 273.034L187.658 275.653L177.224 269.794L181.857 267.175L192.29 273.034ZM192.29 273.034L187.658 275.653L177.224 269.794L181.857 267.175L192.29 273.034Z" fill="white"/>
<path d="M198.142 276.321L198.139 277.755L193.505 280.373L193.51 278.939L198.142 276.321ZM198.142 276.321L198.139 277.755L193.505 280.373L193.51 278.939L198.142 276.321Z" fill="#D7ECFA"/>
<path d="M193.51 278.939L193.505 280.373L188.935 277.807L188.939 276.373L193.51 278.939ZM193.51 278.939L193.505 280.373L188.935 277.807L188.939 276.373L193.51 278.939Z" fill="#D7ECFA"/>
<path d="M198.143 276.321L193.511 278.939L188.939 276.373L193.572 273.754L198.143 276.321ZM198.143 276.321L193.511 278.939L188.939 276.373L193.572 273.754L198.143 276.321Z" fill="white"/>
<path d="M203.994 279.607L203.991 281.041L199.358 283.66L199.361 282.226L203.994 279.607ZM203.994 279.607L203.991 281.041L199.358 283.66L199.361 282.226L203.994 279.607Z" fill="#D7ECFA"/>
<path d="M199.361 282.226L199.358 283.66L194.787 281.092L194.791 279.659L199.361 282.226ZM199.361 282.226L199.358 283.66L194.787 281.092L194.791 279.659L199.361 282.226Z" fill="#D7ECFA"/>
<path d="M203.995 279.607L199.361 282.226L194.791 279.659L199.424 277.041L203.995 279.607ZM203.995 279.607L199.361 282.226L194.791 279.659L199.424 277.041L203.995 279.607Z" fill="white"/>
<path d="M209.858 282.901L209.854 284.333L205.222 286.952L205.225 285.519L209.858 282.901ZM209.858 282.901L209.854 284.333L205.222 286.952L205.225 285.519L209.858 282.901Z" fill="#D7ECFA"/>
<path d="M205.225 285.519L205.222 286.952L200.65 284.385L200.655 282.951L205.225 285.519ZM205.225 285.519L205.222 286.952L200.65 284.385L200.655 282.951L205.225 285.519Z" fill="#D7ECFA"/>
<path d="M209.859 282.901L205.226 285.519L200.656 282.951L205.288 280.333L209.859 282.901ZM209.859 282.901L205.226 285.519L200.656 282.951L205.288 280.333L209.859 282.901Z" fill="white"/>
<path d="M215.709 286.187L215.706 287.62L211.073 290.238L211.077 288.805L215.709 286.187ZM215.709 286.187L215.706 287.62L211.073 290.238L211.077 288.805L215.709 286.187Z" fill="#D7ECFA"/>
<path d="M211.077 288.805L211.073 290.238L206.502 287.672L206.507 286.238L211.077 288.805ZM211.077 288.805L211.073 290.238L206.502 287.672L206.507 286.238L211.077 288.805Z" fill="#D7ECFA"/>
<path d="M215.71 286.187L211.078 288.805L206.508 286.238L211.14 283.619L215.71 286.187ZM215.71 286.187L211.078 288.805L206.508 286.238L211.14 283.619L215.71 286.187Z" fill="white"/>
<path d="M221.562 289.472L221.558 290.906L216.925 293.525L216.929 292.092L221.562 289.472ZM221.562 289.472L221.558 290.906L216.925 293.525L216.929 292.092L221.562 289.472Z" fill="#D7ECFA"/>
<path d="M216.929 292.092L216.925 293.525L212.354 290.958L212.358 289.524L216.929 292.092ZM216.929 292.092L216.925 293.525L212.354 290.958L212.358 289.524L216.929 292.092Z" fill="#D7ECFA"/>
<path d="M221.562 289.472L216.93 292.092L212.358 289.524L216.992 286.906L221.562 289.472ZM221.562 289.472L216.93 292.092L212.358 289.524L216.992 286.906L221.562 289.472Z" fill="white"/>
<path d="M227.426 292.766L227.421 294.198L222.789 296.818L222.792 295.384L227.426 292.766ZM227.426 292.766L227.421 294.198L222.789 296.818L222.792 295.384L227.426 292.766Z" fill="#D7ECFA"/>
<path d="M222.792 295.384L222.789 296.818L218.207 294.245L218.21 292.811L222.792 295.384ZM222.792 295.384L222.789 296.818L218.207 294.245L218.21 292.811L222.792 295.384Z" fill="#D7ECFA"/>
<path d="M227.426 292.766L222.793 295.384L218.211 292.811L222.844 290.192L227.426 292.766ZM227.426 292.766L222.793 295.384L218.211 292.811L222.844 290.192L227.426 292.766Z" fill="white"/>
<path d="M233.278 296.052L233.273 297.486L228.641 300.103L228.645 298.671L233.278 296.052ZM233.278 296.052L233.273 297.486L228.641 300.103L228.645 298.671L233.278 296.052Z" fill="#D7ECFA"/>
<path d="M228.645 298.67L228.641 300.103L224.07 297.537L224.074 296.104L228.645 298.67ZM228.645 298.67L228.641 300.103L224.07 297.537L224.074 296.104L228.645 298.67Z" fill="#D7ECFA"/>
<path d="M233.278 296.052L228.645 298.67L224.075 296.104L228.707 293.485L233.278 296.052ZM233.278 296.052L228.645 298.67L224.075 296.104L228.707 293.485L233.278 296.052Z" fill="white"/>
<path d="M239.129 299.338L239.125 300.771L234.492 303.39L234.497 301.957L239.129 299.338ZM239.129 299.338L239.125 300.771L234.492 303.39L234.497 301.957L239.129 299.338Z" fill="#D7ECFA"/>
<path d="M234.497 301.957L234.492 303.39L229.922 300.823L229.925 299.39L234.497 301.957ZM234.497 301.957L234.492 303.39L229.922 300.823L229.925 299.39L234.497 301.957Z" fill="#D7ECFA"/>
<path d="M239.129 299.338L234.497 301.957L229.926 299.39L234.559 296.771L239.129 299.338ZM239.129 299.338L234.497 301.957L229.926 299.39L234.559 296.771L239.129 299.338Z" fill="white"/>
<path d="M250.845 305.917L250.84 307.351L246.208 309.97L246.212 308.536L250.845 305.917ZM250.845 305.917L250.84 307.351L246.208 309.97L246.212 308.536L250.845 305.917Z" fill="#D7ECFA"/>
<path d="M246.212 308.536L246.208 309.97L235.774 304.11L235.777 302.677L246.212 308.536ZM246.212 308.536L246.208 309.97L235.774 304.11L235.777 302.677L246.212 308.536Z" fill="#D7ECFA"/>
<path d="M250.845 305.917L246.212 308.536L235.778 302.677L240.411 300.057L250.845 305.917ZM250.845 305.917L246.212 308.536L235.778 302.677L240.411 300.057L250.845 305.917Z" fill="white"/>
<path d="M192.226 279.666L192.221 281.099L187.589 283.718L187.593 282.285L192.226 279.666ZM192.226 279.666L192.221 281.099L187.589 283.718L187.593 282.285L192.226 279.666Z" fill="#D7ECFA"/>
<path d="M187.593 282.285L187.589 283.718L171.303 274.571L171.306 273.138L187.593 282.285ZM187.593 282.285L187.589 283.718L171.303 274.571L171.306 273.138L187.593 282.285Z" fill="#D7ECFA"/>
<path d="M192.226 279.666L187.593 282.285L171.307 273.138L175.94 270.52L192.226 279.666ZM192.226 279.666L187.593 282.285L171.307 273.138L175.94 270.52L192.226 279.666Z" fill="white"/>
<path d="M198.077 282.951L198.073 284.385L193.44 287.004L193.445 285.571L198.077 282.951ZM198.077 282.951L198.073 284.385L193.44 287.004L193.445 285.571L198.077 282.951Z" fill="#D7ECFA"/>
<path d="M193.445 285.571L193.44 287.004L188.87 284.437L188.875 283.005L193.445 285.571ZM193.445 285.571L193.44 287.004L188.87 284.437L188.875 283.005L193.445 285.571Z" fill="#D7ECFA"/>
<path d="M198.078 282.951L193.446 285.571L188.875 283.005L193.507 280.385L198.078 282.951ZM198.078 282.951L193.446 285.571L188.875 283.005L193.507 280.385L198.078 282.951Z" fill="white"/>
<path d="M203.941 286.245L203.937 287.679L199.304 290.297L199.309 288.863L203.941 286.245ZM203.941 286.245L203.937 287.679L199.304 290.297L199.309 288.863L203.941 286.245Z" fill="#D7ECFA"/>
<path d="M199.309 288.863L199.304 290.297L194.734 287.73L194.737 286.297L199.309 288.863ZM199.309 288.863L199.304 290.297L194.734 287.73L194.737 286.297L199.309 288.863Z" fill="#D7ECFA"/>
<path d="M203.941 286.245L199.309 288.863L194.738 286.297L199.371 283.678L203.941 286.245ZM203.941 286.245L199.309 288.863L194.738 286.297L199.371 283.678L203.941 286.245Z" fill="white"/>
<path d="M209.793 289.531L209.788 290.964L205.156 293.584L205.16 292.15L209.793 289.531ZM209.793 289.531L209.788 290.964L205.156 293.584L205.16 292.15L209.793 289.531Z" fill="#D7ECFA"/>
<path d="M205.16 292.15L205.156 293.584L200.585 291.016L200.59 289.583L205.16 292.15ZM205.16 292.15L205.156 293.584L200.585 291.016L200.59 289.583L205.16 292.15Z" fill="#D7ECFA"/>
<path d="M209.794 289.531L205.161 292.15L200.59 289.583L205.224 286.965L209.794 289.531ZM209.794 289.531L205.161 292.15L200.59 289.583L205.224 286.965L209.794 289.531Z" fill="white"/>
<path d="M215.645 292.818L215.641 294.25L211.008 296.87L211.012 295.436L215.645 292.818ZM215.645 292.818L215.641 294.25L211.008 296.87L211.012 295.436L215.645 292.818Z" fill="#D7ECFA"/>
<path d="M211.012 295.436L211.008 296.87L206.437 294.302L206.442 292.87L211.012 295.436ZM211.012 295.436L211.008 296.87L206.437 294.302L206.442 292.87L211.012 295.436Z" fill="#D7ECFA"/>
<path d="M215.646 292.818L211.013 295.436L206.442 292.87L211.075 290.251L215.646 292.818ZM215.646 292.818L211.013 295.436L206.442 292.87L211.075 290.251L215.646 292.818Z" fill="white"/>
<path d="M221.508 296.111L221.505 297.544L216.871 300.162L216.875 298.729L221.508 296.111ZM221.508 296.111L221.505 297.544L216.871 300.162L216.875 298.729L221.508 296.111Z" fill="#D7ECFA"/>
<path d="M216.875 298.729L216.871 300.162L212.289 297.589L212.294 296.156L216.875 298.729ZM216.875 298.729L216.871 300.162L212.289 297.589L212.294 296.156L216.875 298.729Z" fill="#D7ECFA"/>
<path d="M221.509 296.111L216.876 298.729L212.295 296.156L216.927 293.536L221.509 296.111ZM221.509 296.111L216.876 298.729L212.295 296.156L216.927 293.536L221.509 296.111Z" fill="white"/>
<path d="M227.36 299.396L227.355 300.83L222.723 303.449L222.727 302.016L227.36 299.396ZM227.36 299.396L227.355 300.83L222.723 303.449L222.727 302.016L227.36 299.396Z" fill="#D7ECFA"/>
<path d="M222.727 302.016L222.723 303.449L218.152 300.882L218.157 299.448L222.727 302.016ZM222.727 302.016L222.723 303.449L218.152 300.882L218.157 299.448L222.727 302.016Z" fill="#D7ECFA"/>
<path d="M227.361 299.396L222.728 302.016L218.157 299.448L222.791 296.83L227.361 299.396ZM227.361 299.396L222.728 302.016L218.157 299.448L222.791 296.83L227.361 299.396Z" fill="white"/>
<path d="M233.212 302.683L233.208 304.117L228.576 306.735L228.579 305.301L233.212 302.683ZM233.212 302.683L233.208 304.117L228.576 306.735L228.579 305.301L233.212 302.683Z" fill="#D7ECFA"/>
<path d="M228.579 305.301L228.576 306.735L224.004 304.168L224.009 302.735L228.579 305.301ZM228.579 305.301L228.576 306.735L224.004 304.168L224.009 302.735L228.579 305.301Z" fill="#D7ECFA"/>
<path d="M233.213 302.683L228.58 305.301L224.01 302.735L228.642 300.116L233.213 302.683ZM233.213 302.683L228.58 305.301L224.01 302.735L228.642 300.116L233.213 302.683Z" fill="white"/>
<path d="M244.927 309.262L244.924 310.695L240.291 313.314L240.294 311.881L244.927 309.262ZM244.927 309.262L244.924 310.695L240.291 313.314L240.294 311.881L244.927 309.262Z" fill="#D7ECFA"/>
<path d="M240.294 311.881L240.291 313.314L229.856 307.455L229.861 306.021L240.294 311.881ZM240.294 311.881L240.291 313.314L229.856 307.455L229.861 306.021L240.294 311.881Z" fill="#D7ECFA"/>
<path d="M244.928 309.262L240.295 311.881L229.862 306.021L234.494 303.403L244.928 309.262ZM244.928 309.262L240.295 311.881L229.862 306.021L234.494 303.403L244.928 309.262Z" fill="white"/>
<path d="M174.604 276.425L174.601 277.859L169.967 280.477L169.972 279.043L174.604 276.425ZM174.604 276.425L174.601 277.859L169.967 280.477L169.972 279.043L174.604 276.425Z" fill="#D7ECFA"/>
<path d="M169.972 279.043L169.967 280.477L165.397 277.91L165.402 276.477L169.972 279.043ZM169.972 279.043L169.967 280.477L165.397 277.91L165.402 276.477L169.972 279.043Z" fill="#D7ECFA"/>
<path d="M174.605 276.425L169.973 279.043L165.402 276.477L170.035 273.858L174.605 276.425ZM174.605 276.425L169.973 279.043L165.402 276.477L170.035 273.858L174.605 276.425Z" fill="white"/>
<path d="M180.468 279.717L180.463 281.151L175.831 283.77L175.835 282.337L180.468 279.717ZM180.468 279.717L180.463 281.151L175.831 283.77L175.835 282.337L180.468 279.717Z" fill="#D7ECFA"/>
<path d="M175.835 282.337L175.831 283.77L171.26 281.203L171.265 279.769L175.835 282.337ZM175.835 282.337L175.831 283.77L171.26 281.203L171.265 279.769L175.835 282.337Z" fill="#D7ECFA"/>
<path d="M180.469 279.717L175.836 282.337L171.265 279.769L175.899 277.15L180.469 279.717ZM180.469 279.717L175.836 282.337L171.265 279.769L175.899 277.15L180.469 279.717Z" fill="white"/>
<path d="M186.32 283.005L186.316 284.437L181.683 287.056L181.687 285.623L186.32 283.005ZM186.32 283.005L186.316 284.437L181.683 287.056L181.687 285.623L186.32 283.005Z" fill="#D7ECFA"/>
<path d="M181.687 285.623L181.683 287.056L177.112 284.489L177.117 283.055L181.687 285.623ZM181.687 285.623L181.683 287.056L177.112 284.489L177.117 283.055L181.687 285.623Z" fill="#D7ECFA"/>
<path d="M186.321 283.005L181.688 285.623L177.117 283.055L181.749 280.437L186.321 283.005ZM186.321 283.005L181.688 285.623L177.117 283.055L181.749 280.437L186.321 283.005Z" fill="white"/>
<path d="M215.603 299.448L215.599 300.882L210.966 303.501L210.97 302.067L215.603 299.448ZM215.603 299.448L215.599 300.882L210.966 303.501L210.97 302.067L215.603 299.448Z" fill="#D7ECFA"/>
<path d="M210.97 302.067L210.966 303.501L182.964 287.776L182.968 286.342L210.97 302.067ZM210.97 302.067L210.966 303.501L182.964 287.776L182.968 286.342L210.97 302.067Z" fill="#D7ECFA"/>
<path d="M215.603 299.448L210.971 302.067L182.968 286.342L187.601 283.723L215.603 299.448ZM215.603 299.448L210.971 302.067L182.968 286.342L187.601 283.723L215.603 299.448Z" fill="white"/>
<path d="M221.455 302.735L221.451 304.168L216.818 306.787L216.821 305.353L221.455 302.735ZM221.455 302.735L221.451 304.168L216.818 306.787L216.821 305.353L221.455 302.735Z" fill="#D7ECFA"/>
<path d="M216.821 305.353L216.818 306.787L212.246 304.221L212.251 302.787L216.821 305.353ZM216.821 305.353L216.818 306.787L212.246 304.221L212.251 302.787L216.821 305.353Z" fill="#D7ECFA"/>
<path d="M221.455 302.735L216.822 305.353L212.252 302.787L216.885 300.168L221.455 302.735ZM221.455 302.735L216.822 305.353L212.252 302.787L216.885 300.168L221.455 302.735Z" fill="white"/>
<path d="M227.307 306.021L227.302 307.455L222.67 310.074L222.673 308.64L227.307 306.021ZM227.307 306.021L227.302 307.455L222.67 310.074L222.673 308.64L227.307 306.021Z" fill="#D7ECFA"/>
<path d="M222.674 308.64L222.67 310.074L218.099 307.507L218.103 306.073L222.674 308.64ZM222.674 308.64L222.67 310.074L218.099 307.507L218.103 306.073L222.674 308.64Z" fill="#D7ECFA"/>
<path d="M227.307 306.021L222.674 308.64L218.104 306.073L222.736 303.455L227.307 306.021ZM227.307 306.021L222.674 308.64L218.104 306.073L222.736 303.455L227.307 306.021Z" fill="white"/>
<path d="M239.022 312.601L239.017 314.034L234.385 316.652L234.389 315.219L239.022 312.601ZM239.022 312.601L239.017 314.034L234.385 316.652L234.389 315.219L239.022 312.601Z" fill="#D7ECFA"/>
<path d="M234.389 315.219L234.385 316.652L223.951 310.792L223.955 309.359L234.389 315.219ZM234.389 315.219L234.385 316.652L223.951 310.792L223.955 309.359L234.389 315.219Z" fill="#D7ECFA"/>
<path d="M239.023 312.601L234.389 315.219L223.956 309.359L228.588 306.741L239.023 312.601ZM239.023 312.601L234.389 315.219L223.956 309.359L228.588 306.741L239.023 312.601Z" fill="white"/>
<path d="M307.701 338.593C301.527 342.06 291.519 342.06 285.345 338.593C279.171 335.126 279.171 329.504 285.345 326.038C291.519 322.571 301.527 322.571 307.701 326.038C313.875 329.504 313.875 335.126 307.701 338.593ZM307.701 338.593C301.527 342.06 291.519 342.06 285.345 338.593C279.171 335.126 279.171 329.504 285.345 326.038C291.519 322.571 301.527 322.571 307.701 326.038C313.875 329.504 313.875 335.126 307.701 338.593Z" fill="#36E7F7"/>
<path d="M312.332 332.315H280.715V306.606H312.332V332.315ZM312.332 332.315H280.715V306.606H312.332V332.315Z" fill="#36E7F7"/>
<path d="M307.702 312.883C301.528 316.349 291.519 316.349 285.345 312.883C279.171 309.416 279.171 303.794 285.345 300.328C291.519 296.861 301.528 296.861 307.702 300.328C313.876 303.794 313.875 309.416 307.702 312.883ZM307.702 312.883C301.528 316.349 291.519 316.349 285.345 312.883C279.171 309.416 279.171 303.794 285.345 300.328C291.519 296.861 301.528 296.861 307.702 300.328C313.876 303.794 313.875 309.416 307.702 312.883Z" fill="white"/>
<path d="M308.547 308.516C307.929 309.348 306.955 310.134 305.612 310.804C300.694 313.254 292.734 313.254 287.816 310.804C286.473 310.134 285.499 309.348 284.893 308.516C283.266 306.297 284.24 303.709 287.816 301.929C292.734 299.479 300.694 299.479 305.612 301.929C309.188 303.709 310.162 306.297 308.547 308.516ZM308.547 308.516C307.929 309.348 306.955 310.134 305.612 310.804C300.694 313.254 292.734 313.254 287.816 310.804C286.473 310.134 285.499 309.348 284.893 308.516C283.266 306.297 284.24 303.709 287.816 301.929C292.734 299.479 300.694 299.479 305.612 301.929C309.188 303.709 310.162 306.297 308.547 308.516Z" fill="#EBEBEB"/>
<path d="M308.547 308.516C307.929 309.348 306.955 310.134 305.612 310.804C300.694 313.254 292.734 313.254 287.816 310.804C286.473 310.134 285.499 309.348 284.893 308.516C285.499 307.684 286.473 306.898 287.816 306.228C292.734 303.778 300.694 303.778 305.612 306.228C306.955 306.898 307.929 307.684 308.547 308.516ZM308.547 308.516C307.929 309.348 306.955 310.134 305.612 310.804C300.694 313.254 292.734 313.254 287.816 310.804C286.473 310.134 285.499 309.348 284.893 308.516C285.499 307.684 286.473 306.898 287.816 306.228C292.734 303.778 300.694 303.778 305.612 306.228C306.955 306.898 307.929 307.684 308.547 308.516Z" fill="#544438"/>
<path d="M178.498 261.016L139.94 239.364L194.471 208.74L233.03 230.393L178.498 261.016ZM178.498 261.016L139.94 239.364L194.471 208.74L233.03 230.393L178.498 261.016Z" fill="white"/>
<path d="M179.273 253.682L144.456 234.13L193.697 206.477L228.514 226.03L179.273 253.682ZM179.273 253.682L144.456 234.13L193.697 206.477L228.514 226.03L179.273 253.682Z" fill="#4661AD"/>
<path d="M260.753 284.556L235.6 270.431C233.981 269.521 233.981 267.25 235.6 266.34L264.24 250.257L296.524 268.387L267.73 284.556C265.572 285.769 262.912 285.769 260.753 284.556ZM260.753 284.556L235.6 270.431C233.981 269.521 233.981 267.25 235.6 266.34L264.24 250.257L296.524 268.387L267.73 284.556C265.572 285.769 262.912 285.769 260.753 284.556Z" fill="#0B246E"/>
<path d="M219.805 139.978L216.126 142.398L219.703 230.923L336.448 300.374L339.79 298.192C340.309 297.853 340.621 297.284 340.621 296.676V208.827C340.621 207.829 340.074 206.908 339.187 206.41L220.857 139.942C220.528 139.758 220.12 139.771 219.805 139.978ZM219.805 139.978L216.126 142.398L219.703 230.923L336.448 300.374L339.79 298.192C340.309 297.853 340.621 297.284 340.621 296.676V208.827C340.621 207.829 340.074 206.908 339.187 206.41L220.857 139.942C220.528 139.758 220.12 139.771 219.805 139.978Z" fill="#0B246E"/>
<path d="M335.015 208.624C336.121 209.246 336.801 210.394 336.801 211.636V299.463C336.801 300.257 335.919 300.753 335.212 300.356L218.704 234.92C216.959 233.941 215.884 232.127 215.884 230.166V142.98C215.884 142.419 216.51 142.066 217.01 142.347L335.015 208.624ZM335.015 208.624C336.121 209.246 336.801 210.394 336.801 211.636V299.463C336.801 300.257 335.919 300.753 335.212 300.356L218.704 234.92C216.959 233.941 215.884 232.127 215.884 230.166V142.98C215.884 142.419 216.51 142.066 217.01 142.347" fill="#36E7F7"/>
<path d="M215.884 216.561V146.146L336.647 213.987L336.801 284.476L215.884 216.561ZM215.884 216.561V146.146L336.647 213.987L336.801 284.476L215.884 216.561Z" fill="white"/>
<path d="M294.128 251.713C310.837 261.097 324.201 268.602 324.201 268.602" stroke="#44E9F8" stroke-width="4.28302" stroke-dasharray="147.76 10.71"/>
<path d="M229.097 209.415C229.097 209.415 261.992 227.889 289.091 243.107" stroke="#44E9F8" stroke-width="4.28302" stroke-dasharray="147.76 10.71"/>
<path d="M229.097 203.638L324.201 257.046" stroke="#44E9F8" stroke-width="4.28302" stroke-dasharray="147.76 10.71"/>
<path d="M229.097 197.86L324.201 251.268" stroke="#44E9F8" stroke-width="4.28302" stroke-dasharray="147.76 10.71"/>
<path d="M229.097 192.082L324.201 245.49" stroke="#44E9F8" stroke-width="4.28302" stroke-dasharray="147.76 10.71"/>
<path d="M229.097 186.304L324.201 239.713" stroke="#44E9F8" stroke-width="4.28302" stroke-dasharray="147.76 10.71"/>
<path d="M229.097 180.526L324.201 233.935" stroke="#44E9F8" stroke-width="4.28302" stroke-dasharray="147.76 10.71"/>
<path d="M229.097 174.749L324.201 228.157" stroke="#44E9F8" stroke-width="4.28302" stroke-dasharray="147.76 10.71"/>
<path d="M229.097 168.971C229.097 168.971 254.765 183.386 279.431 197.237M324.155 222.353C324.186 222.371 324.201 222.379 324.201 222.379L324.155 222.353Z" stroke="#44E9F8" stroke-width="4.28302" stroke-dasharray="147.76 10.71"/>
<path d="M229.097 163.193L324.201 216.601" stroke="#44E9F8" stroke-width="4.28302" stroke-dasharray="147.76 10.71"/>
<path d="M373.709 187.577L281.207 136.374V91.8741L373.709 143.077V187.577ZM373.709 187.577L281.207 136.374V91.8741L373.709 143.077V187.577Z" fill="#88F7FF"/>
<path d="M305.793 116.795V138.974L302.864 137.329V127.336L292.564 121.552V131.545L289.622 129.892V107.713L292.564 109.366V119.158L302.864 124.943V115.151L305.793 116.795ZM305.793 116.795V138.974L302.864 137.329V127.336L292.564 121.552V131.545L289.622 129.892V107.713L292.564 109.366V119.158L302.864 124.943V115.151L305.793 116.795Z" fill="#0B246E"/>
<path d="M324.138 129.847L317.868 126.325V145.754L314.951 144.117V124.687L308.654 121.151V118.401L324.138 127.098V129.847ZM324.138 129.847L317.868 126.325V145.754L314.951 144.117V124.687L308.654 121.151V118.401L324.138 127.098V129.847Z" fill="#0B246E"/>
<path d="M347.749 140.357V162.535L345.191 161.099V145.314C345.191 145.077 345.197 144.829 345.211 144.569C345.225 144.309 345.242 144.045 345.26 143.777L338.687 153.632C338.457 154.007 338.104 154.062 337.627 153.794L337.215 153.561C336.738 153.293 336.39 152.846 336.17 152.219L329.472 134.866C329.528 135.473 329.555 136.03 329.555 136.534V152.318L326.983 150.875V128.696L329.156 129.915C329.413 130.06 329.611 130.201 329.754 130.337C329.896 130.473 330.032 130.706 330.16 131.035L336.761 148.025C336.889 148.365 337.008 148.715 337.118 149.076C337.229 149.436 337.333 149.793 337.434 150.148C337.627 149.649 337.853 149.188 338.109 148.766L344.585 139.137C344.705 138.946 344.834 138.863 344.977 138.886C345.12 138.909 345.319 138.992 345.576 139.137L347.749 140.357ZM347.749 140.357V162.535L345.191 161.099V145.314C345.191 145.077 345.197 144.829 345.211 144.569C345.225 144.309 345.242 144.045 345.26 143.777L338.687 153.632C338.457 154.007 338.104 154.062 337.627 153.794L337.215 153.561C336.738 153.293 336.39 152.846 336.17 152.219L329.472 134.866C329.528 135.473 329.555 136.03 329.555 136.534V152.318L326.983 150.875V128.696L329.156 129.915C329.413 130.06 329.611 130.201 329.754 130.337C329.896 130.473 330.032 130.706 330.16 131.035L336.761 148.025C336.889 148.365 337.008 148.715 337.118 149.076C337.229 149.436 337.333 149.793 337.434 150.148C337.627 149.649 337.853 149.188 338.109 148.766L344.585 139.137C344.705 138.946 344.834 138.863 344.977 138.886C345.12 138.909 345.319 138.992 345.576 139.137L347.749 140.357Z" fill="#0B246E"/>
<path d="M363.934 168.861V171.625L352.631 165.278V143.098L355.56 144.743V164.158L363.934 168.861ZM363.934 168.861V171.625L352.631 165.278V143.098L355.56 144.743V164.158L363.934 168.861Z" fill="#0B246E"/>
<path d="M176.802 183.618L105.16 144.689V100.189L176.802 139.118V183.618ZM176.802 183.618L105.16 144.689V100.189L176.802 139.118V183.618Z" fill="#0B246E"/>
<path d="M131.568 143.101C131.733 143.193 131.875 143.344 131.995 143.556L133.151 145.627C132.343 146.245 131.36 146.521 130.201 146.456C129.041 146.392 127.646 145.902 126.013 144.985C124.583 144.182 123.288 143.177 122.128 141.969C120.969 140.762 119.979 139.428 119.158 137.969C118.337 136.509 117.703 134.958 117.254 133.316C116.805 131.674 116.579 130.018 116.579 128.351C116.579 126.683 116.816 125.288 117.287 124.162C117.759 123.038 118.423 122.214 119.275 121.694C120.128 121.174 121.146 120.969 122.334 121.08C123.522 121.191 124.835 121.65 126.275 122.459C127.676 123.247 128.923 124.204 130.014 125.331C131.105 126.458 132.054 127.677 132.861 128.984L131.899 129.973C131.834 130.051 131.755 130.097 131.659 130.116C131.561 130.134 131.436 130.098 131.281 130.012C131.106 129.913 130.901 129.702 130.668 129.375C130.434 129.048 130.127 128.656 129.747 128.201C129.367 127.745 128.896 127.261 128.337 126.752C127.777 126.242 127.081 125.753 126.247 125.285C125.266 124.734 124.367 124.422 123.552 124.35C122.734 124.278 122.032 124.439 121.441 124.833C120.85 125.227 120.39 125.86 120.066 126.733C119.74 127.606 119.578 128.706 119.578 130.035C119.578 131.383 119.746 132.677 120.086 133.918C120.425 135.16 120.892 136.313 121.488 137.378C122.084 138.444 122.787 139.394 123.593 140.228C124.4 141.062 125.271 141.742 126.206 142.267C126.774 142.586 127.286 142.834 127.739 143.012C128.193 143.19 128.609 143.309 128.99 143.367C129.37 143.426 129.73 143.431 130.069 143.379C130.409 143.328 130.743 143.223 131.073 143.069C131.147 143.038 131.225 143.023 131.307 143.023C131.39 143.023 131.477 143.049 131.568 143.101ZM131.568 143.101C131.733 143.193 131.875 143.344 131.995 143.556L133.151 145.627C132.343 146.245 131.36 146.521 130.201 146.456C129.041 146.392 127.646 145.902 126.013 144.985C124.583 144.182 123.288 143.177 122.128 141.969C120.969 140.762 119.979 139.428 119.158 137.969C118.337 136.509 117.703 134.958 117.254 133.316C116.805 131.674 116.579 130.018 116.579 128.351C116.579 126.683 116.816 125.288 117.287 124.162C117.759 123.038 118.423 122.214 119.275 121.694C120.128 121.174 121.146 120.969 122.334 121.08C123.522 121.191 124.835 121.65 126.275 122.459C127.676 123.247 128.923 124.204 130.014 125.331C131.105 126.458 132.054 127.677 132.861 128.984L131.899 129.973C131.834 130.051 131.755 130.097 131.659 130.116C131.561 130.134 131.436 130.098 131.281 130.012C131.106 129.913 130.901 129.702 130.668 129.375C130.434 129.048 130.127 128.656 129.747 128.201C129.367 127.745 128.896 127.261 128.337 126.752C127.777 126.242 127.081 125.753 126.247 125.285C125.266 124.734 124.367 124.422 123.552 124.35C122.734 124.278 122.032 124.439 121.441 124.833C120.85 125.227 120.39 125.86 120.066 126.733C119.74 127.606 119.578 128.706 119.578 130.035C119.578 131.383 119.746 132.677 120.086 133.918C120.425 135.16 120.892 136.313 121.488 137.378C122.084 138.444 122.787 139.394 123.593 140.228C124.4 141.062 125.271 141.742 126.206 142.267C126.774 142.586 127.286 142.834 127.739 143.012C128.193 143.19 128.609 143.309 128.99 143.367C129.37 143.426 129.73 143.431 130.069 143.379C130.409 143.328 130.743 143.223 131.073 143.069C131.147 143.038 131.225 143.023 131.307 143.023C131.39 143.023 131.477 143.049 131.568 143.101Z" fill="#36E7F7"/>
<path d="M146.323 137.579C146.232 137.703 146.136 137.778 146.035 137.803C145.934 137.829 145.805 137.798 145.65 137.71C145.485 137.617 145.297 137.427 145.087 137.139C144.875 136.85 144.612 136.512 144.296 136.123C143.98 135.735 143.601 135.332 143.161 134.915C142.721 134.497 142.193 134.116 141.579 133.772C141.001 133.448 140.495 133.247 140.06 133.173C139.624 133.098 139.26 133.126 138.966 133.254C138.673 133.382 138.451 133.603 138.3 133.915C138.148 134.226 138.073 134.614 138.073 135.078C138.073 135.675 138.208 136.245 138.478 136.788C138.749 137.331 139.105 137.866 139.545 138.391C139.984 138.916 140.483 139.437 141.043 139.957C141.602 140.477 142.175 141.012 142.762 141.564C143.349 142.115 143.921 142.692 144.481 143.294C145.039 143.896 145.541 144.54 145.98 145.225C146.42 145.91 146.776 146.645 147.046 147.429C147.317 148.214 147.451 149.066 147.451 149.982C147.451 150.961 147.301 151.792 147.004 152.479C146.706 153.167 146.272 153.671 145.705 153.989C145.137 154.31 144.438 154.418 143.608 154.318C142.777 154.217 141.836 153.87 140.783 153.279C140.149 152.923 139.535 152.509 138.939 152.035C138.342 151.562 137.779 151.05 137.248 150.498C136.716 149.947 136.218 149.365 135.756 148.75C135.293 148.134 134.878 147.503 134.511 146.854L135.35 145.749C135.432 145.672 135.53 145.625 135.646 145.607C135.76 145.589 135.89 145.62 136.038 145.703C136.23 145.81 136.452 146.05 136.704 146.417C136.956 146.786 137.268 147.21 137.64 147.692C138.011 148.172 138.455 148.672 138.973 149.189C139.491 149.707 140.122 150.174 140.865 150.591C141.469 150.931 142.011 151.144 142.487 151.232C142.964 151.32 143.365 151.288 143.691 151.136C144.015 150.984 144.266 150.72 144.439 150.345C144.614 149.969 144.701 149.492 144.701 148.915C144.701 148.267 144.568 147.662 144.303 147.101C144.037 146.54 143.683 145.998 143.243 145.472C142.803 144.947 142.303 144.429 141.745 143.92C141.185 143.41 140.612 142.884 140.025 142.344C139.438 141.803 138.865 141.237 138.307 140.645C137.747 140.052 137.247 139.41 136.807 138.714C136.368 138.018 136.015 137.26 135.749 136.436C135.483 135.613 135.35 134.707 135.35 133.719C135.35 132.926 135.488 132.235 135.762 131.648C136.038 131.061 136.438 130.63 136.965 130.355C137.492 130.08 138.14 129.985 138.911 130.073C139.681 130.161 140.563 130.483 141.552 131.039C142.661 131.662 143.681 132.432 144.612 133.351C145.542 134.271 146.351 135.294 147.039 136.421L146.323 137.579ZM146.323 137.579C146.232 137.703 146.136 137.778 146.035 137.803C145.934 137.829 145.805 137.798 145.65 137.71C145.485 137.617 145.297 137.427 145.087 137.139C144.875 136.85 144.612 136.512 144.296 136.123C143.98 135.735 143.601 135.332 143.161 134.915C142.721 134.497 142.193 134.116 141.579 133.772C141.001 133.448 140.495 133.247 140.06 133.173C139.624 133.098 139.26 133.126 138.966 133.254C138.673 133.382 138.451 133.603 138.3 133.915C138.148 134.226 138.073 134.614 138.073 135.078C138.073 135.675 138.208 136.245 138.478 136.788C138.749 137.331 139.105 137.866 139.545 138.391C139.984 138.916 140.483 139.437 141.043 139.957C141.602 140.477 142.175 141.012 142.762 141.564C143.349 142.115 143.921 142.692 144.481 143.294C145.039 143.896 145.541 144.54 145.98 145.225C146.42 145.91 146.776 146.645 147.046 147.429C147.317 148.214 147.451 149.066 147.451 149.982C147.451 150.961 147.301 151.792 147.004 152.479C146.706 153.167 146.272 153.671 145.705 153.989C145.137 154.31 144.438 154.418 143.608 154.318C142.777 154.217 141.836 153.87 140.783 153.279C140.149 152.923 139.535 152.509 138.939 152.035C138.342 151.562 137.779 151.05 137.248 150.498C136.716 149.947 136.218 149.365 135.756 148.75C135.293 148.134 134.878 147.503 134.511 146.854L135.35 145.749C135.432 145.672 135.53 145.625 135.646 145.607C135.76 145.589 135.89 145.62 136.038 145.703C136.23 145.81 136.452 146.05 136.704 146.417C136.956 146.786 137.268 147.21 137.64 147.692C138.011 148.172 138.455 148.672 138.973 149.189C139.491 149.707 140.122 150.174 140.865 150.591C141.469 150.931 142.011 151.144 142.487 151.232C142.964 151.32 143.365 151.288 143.691 151.136C144.015 150.984 144.266 150.72 144.439 150.345C144.614 149.969 144.701 149.492 144.701 148.915C144.701 148.267 144.568 147.662 144.303 147.101C144.037 146.54 143.683 145.998 143.243 145.472C142.803 144.947 142.303 144.429 141.745 143.92C141.185 143.41 140.612 142.884 140.025 142.344C139.438 141.803 138.865 141.237 138.307 140.645C137.747 140.052 137.247 139.41 136.807 138.714C136.368 138.018 136.015 137.26 135.749 136.436C135.483 135.613 135.35 134.707 135.35 133.719C135.35 132.926 135.488 132.235 135.762 131.648C136.038 131.061 136.438 130.63 136.965 130.355C137.492 130.08 138.14 129.985 138.911 130.073C139.681 130.161 140.563 130.483 141.552 131.039C142.661 131.662 143.681 132.432 144.612 133.351C145.542 134.271 146.351 135.294 147.039 136.421L146.323 137.579Z" fill="#36E7F7"/>
<path d="M161.285 145.981C161.194 146.105 161.098 146.18 160.997 146.206C160.896 146.231 160.766 146.2 160.611 146.112C160.445 146.02 160.258 145.829 160.047 145.541C159.836 145.252 159.572 144.914 159.256 144.525C158.94 144.137 158.562 143.734 158.123 143.317C157.683 142.899 157.155 142.518 156.54 142.174C155.963 141.85 155.457 141.649 155.022 141.575C154.586 141.5 154.221 141.529 153.928 141.657C153.635 141.786 153.412 142.006 153.261 142.317C153.109 142.629 153.035 143.015 153.035 143.478C153.035 144.076 153.17 144.647 153.44 145.19C153.711 145.733 154.066 146.268 154.505 146.793C154.945 147.318 155.445 147.84 156.005 148.36C156.564 148.88 157.137 149.415 157.724 149.966C158.311 150.517 158.883 151.092 159.443 151.696C160.001 152.298 160.501 152.942 160.941 153.627C161.38 154.312 161.736 155.047 162.006 155.831C162.277 156.616 162.413 157.468 162.413 158.384C162.413 159.362 162.263 160.194 161.966 160.881C161.668 161.569 161.234 162.073 160.666 162.392C160.099 162.712 159.399 162.82 158.568 162.72C157.739 162.619 156.797 162.272 155.743 161.681C155.11 161.325 154.497 160.911 153.901 160.437C153.304 159.964 152.74 159.452 152.209 158.901C151.677 158.349 151.179 157.767 150.717 157.152C150.253 156.536 149.839 155.904 149.472 155.256L150.312 154.151C150.394 154.074 150.492 154.028 150.607 154.009C150.722 153.991 150.852 154.022 151 154.105C151.192 154.214 151.414 154.452 151.666 154.819C151.918 155.188 152.229 155.612 152.601 156.094C152.972 156.574 153.417 157.074 153.935 157.591C154.453 158.109 155.084 158.576 155.826 158.993C156.431 159.333 156.972 159.547 157.448 159.634C157.924 159.721 158.326 159.69 158.652 159.538C158.976 159.386 159.227 159.122 159.401 158.747C159.575 158.371 159.663 157.894 159.663 157.317C159.663 156.668 159.529 156.064 159.265 155.503C158.998 154.942 158.644 154.398 158.205 153.873C157.765 153.348 157.264 152.832 156.706 152.322C156.146 151.812 155.573 151.287 154.986 150.746C154.4 150.205 153.826 149.639 153.267 149.047C152.708 148.454 152.209 147.812 151.769 147.116C151.33 146.42 150.976 145.662 150.71 144.839C150.444 144.015 150.312 143.109 150.312 142.121C150.312 141.328 150.449 140.638 150.724 140.051C151 139.464 151.4 139.032 151.927 138.757C152.454 138.482 153.102 138.387 153.873 138.475C154.643 138.563 155.523 138.885 156.513 139.441C157.622 140.064 158.643 140.835 159.573 141.753C160.504 142.673 161.313 143.696 162.001 144.824L161.285 145.981ZM161.285 145.981C161.194 146.105 161.098 146.18 160.997 146.206C160.896 146.231 160.766 146.2 160.611 146.112C160.445 146.02 160.258 145.829 160.047 145.541C159.836 145.252 159.572 144.914 159.256 144.525C158.94 144.137 158.562 143.734 158.123 143.317C157.683 142.899 157.155 142.518 156.54 142.174C155.963 141.85 155.457 141.649 155.022 141.575C154.586 141.5 154.221 141.529 153.928 141.657C153.635 141.786 153.412 142.006 153.261 142.317C153.109 142.629 153.035 143.015 153.035 143.478C153.035 144.076 153.17 144.647 153.44 145.19C153.711 145.733 154.066 146.268 154.505 146.793C154.945 147.318 155.445 147.84 156.005 148.36C156.564 148.88 157.137 149.415 157.724 149.966C158.311 150.517 158.883 151.092 159.443 151.696C160.001 152.298 160.501 152.942 160.941 153.627C161.38 154.312 161.736 155.047 162.006 155.831C162.277 156.616 162.413 157.468 162.413 158.384C162.413 159.362 162.263 160.194 161.966 160.881C161.668 161.569 161.234 162.073 160.666 162.392C160.099 162.712 159.399 162.82 158.568 162.72C157.739 162.619 156.797 162.272 155.743 161.681C155.11 161.325 154.497 160.911 153.901 160.437C153.304 159.964 152.74 159.452 152.209 158.901C151.677 158.349 151.179 157.767 150.717 157.152C150.253 156.536 149.839 155.904 149.472 155.256L150.312 154.151C150.394 154.074 150.492 154.028 150.607 154.009C150.722 153.991 150.852 154.022 151 154.105C151.192 154.214 151.414 154.452 151.666 154.819C151.918 155.188 152.229 155.612 152.601 156.094C152.972 156.574 153.417 157.074 153.935 157.591C154.453 158.109 155.084 158.576 155.826 158.993C156.431 159.333 156.972 159.547 157.448 159.634C157.924 159.721 158.326 159.69 158.652 159.538C158.976 159.386 159.227 159.122 159.401 158.747C159.575 158.371 159.663 157.894 159.663 157.317C159.663 156.668 159.529 156.064 159.265 155.503C158.998 154.942 158.644 154.398 158.205 153.873C157.765 153.348 157.264 152.832 156.706 152.322C156.146 151.812 155.573 151.287 154.986 150.746C154.4 150.205 153.826 149.639 153.267 149.047C152.708 148.454 152.209 147.812 151.769 147.116C151.33 146.42 150.976 145.662 150.71 144.839C150.444 144.015 150.312 143.109 150.312 142.121C150.312 141.328 150.449 140.638 150.724 140.051C151 139.464 151.4 139.032 151.927 138.757C152.454 138.482 153.102 138.387 153.873 138.475C154.643 138.563 155.523 138.885 156.513 139.441C157.622 140.064 158.643 140.835 159.573 141.753C160.504 142.673 161.313 143.696 162.001 144.824L161.285 145.981Z" fill="#36E7F7"/>
<path d="M435.894 312.689L386.652 285.879V241.378L435.894 268.189V312.689ZM435.894 312.689L386.652 285.879V241.378L435.894 268.189V312.689Z" fill="#0B246E"/>
<path d="M407.8 281.085C407.8 282.32 407.664 283.356 407.388 284.19C407.114 285.024 406.711 285.636 406.185 286.024C405.657 286.412 405.001 286.569 404.217 286.494C403.434 286.42 402.534 286.098 401.516 285.526C400.599 285.012 399.655 284.337 398.684 283.502L398.849 281.649C398.866 281.473 398.929 281.356 399.034 281.298C399.14 281.239 399.297 281.268 399.508 281.387C399.664 281.473 399.877 281.637 400.147 281.877C400.417 282.116 400.773 282.358 401.213 282.606C401.8 282.935 402.321 283.13 402.775 283.189C403.228 283.248 403.611 283.157 403.923 282.915C404.234 282.673 404.47 282.273 404.631 281.715C404.791 281.155 404.872 280.424 404.872 279.518V264.984L407.8 266.629V281.085ZM407.8 281.085C407.8 282.32 407.664 283.356 407.388 284.19C407.114 285.024 406.711 285.636 406.185 286.024C405.657 286.412 405.001 286.569 404.217 286.494C403.434 286.42 402.534 286.098 401.516 285.526C400.599 285.012 399.655 284.337 398.684 283.502L398.849 281.649C398.866 281.473 398.929 281.356 399.034 281.298C399.14 281.239 399.297 281.268 399.508 281.387C399.664 281.473 399.877 281.637 400.147 281.877C400.417 282.116 400.773 282.358 401.213 282.606C401.8 282.935 402.321 283.13 402.775 283.189C403.228 283.248 403.611 283.157 403.923 282.915C404.234 282.673 404.47 282.273 404.631 281.715C404.791 281.155 404.872 280.424 404.872 279.518V264.984L407.8 266.629V281.085Z" fill="white"/>
<path d="M423.621 277.654C423.529 277.777 423.433 277.852 423.332 277.878C423.231 277.903 423.103 277.873 422.947 277.785C422.782 277.693 422.595 277.502 422.384 277.214C422.173 276.926 421.909 276.587 421.593 276.199C421.277 275.81 420.898 275.407 420.458 274.99C420.019 274.573 419.49 274.19 418.876 273.846C418.299 273.522 417.793 273.323 417.358 273.249C416.922 273.173 416.557 273.201 416.264 273.329C415.97 273.458 415.748 273.677 415.597 273.989C415.445 274.3 415.37 274.688 415.37 275.152C415.37 275.749 415.504 276.319 415.775 276.862C416.046 277.405 416.403 277.94 416.842 278.465C417.282 278.991 417.781 279.512 418.34 280.032C418.9 280.552 419.472 281.088 420.059 281.639C420.646 282.19 421.219 282.767 421.778 283.369C422.337 283.971 422.837 284.615 423.276 285.299C423.716 285.984 424.074 286.719 424.343 287.504C424.613 288.289 424.748 289.14 424.748 290.056C424.748 291.034 424.599 291.867 424.302 292.555C424.003 293.242 423.57 293.745 423.002 294.064C422.434 294.384 421.736 294.492 420.905 294.392C420.075 294.291 419.134 293.945 418.08 293.353C417.447 292.997 416.833 292.583 416.236 292.11C415.64 291.636 415.077 291.125 414.546 290.574C414.013 290.023 413.516 289.439 413.054 288.824C412.59 288.208 412.176 287.576 411.809 286.928L412.647 285.825C412.729 285.747 412.828 285.7 412.943 285.681C413.057 285.663 413.188 285.694 413.335 285.777C413.528 285.886 413.75 286.125 414.002 286.492C414.253 286.861 414.566 287.285 414.938 287.767C415.308 288.248 415.753 288.747 416.271 289.265C416.789 289.782 417.42 290.249 418.162 290.666C418.767 291.006 419.308 291.22 419.785 291.308C420.261 291.394 420.663 291.362 420.988 291.211C421.313 291.058 421.562 290.795 421.737 290.419C421.91 290.044 421.998 289.567 421.998 288.991C421.998 288.343 421.865 287.736 421.6 287.175C421.334 286.614 420.98 286.072 420.54 285.546C420.101 285.021 419.601 284.504 419.042 283.994C418.483 283.485 417.909 282.959 417.322 282.418C416.735 281.877 416.163 281.311 415.604 280.719C415.045 280.126 414.545 279.485 414.105 278.79C413.665 278.094 413.313 277.335 413.046 276.511C412.78 275.687 412.647 274.781 412.647 273.793C412.647 273 412.785 272.31 413.06 271.723C413.335 271.136 413.736 270.704 414.263 270.429C414.789 270.154 415.438 270.06 416.209 270.148C416.979 270.236 417.86 270.557 418.85 271.113C419.958 271.736 420.979 272.507 421.909 273.425C422.839 274.345 423.648 275.368 424.336 276.496L423.621 277.654ZM423.621 277.654C423.529 277.777 423.433 277.852 423.332 277.878C423.231 277.903 423.103 277.873 422.947 277.785C422.782 277.693 422.595 277.502 422.384 277.214C422.173 276.926 421.909 276.587 421.593 276.199C421.277 275.81 420.898 275.407 420.458 274.99C420.019 274.573 419.49 274.19 418.876 273.846C418.299 273.522 417.793 273.323 417.358 273.249C416.922 273.173 416.557 273.201 416.264 273.329C415.97 273.458 415.748 273.677 415.597 273.989C415.445 274.3 415.37 274.688 415.37 275.152C415.37 275.749 415.504 276.319 415.775 276.862C416.046 277.405 416.403 277.94 416.842 278.465C417.282 278.991 417.781 279.512 418.34 280.032C418.9 280.552 419.472 281.088 420.059 281.639C420.646 282.19 421.219 282.767 421.778 283.369C422.337 283.971 422.837 284.615 423.276 285.299C423.716 285.984 424.074 286.719 424.343 287.504C424.613 288.289 424.748 289.14 424.748 290.056C424.748 291.034 424.599 291.867 424.302 292.555C424.003 293.242 423.57 293.745 423.002 294.064C422.434 294.384 421.736 294.492 420.905 294.392C420.075 294.291 419.134 293.945 418.08 293.353C417.447 292.997 416.833 292.583 416.236 292.11C415.64 291.636 415.077 291.125 414.546 290.574C414.013 290.023 413.516 289.439 413.054 288.824C412.59 288.208 412.176 287.576 411.809 286.928L412.647 285.825C412.729 285.747 412.828 285.7 412.943 285.681C413.057 285.663 413.188 285.694 413.335 285.777C413.528 285.886 413.75 286.125 414.002 286.492C414.253 286.861 414.566 287.285 414.938 287.767C415.308 288.248 415.753 288.747 416.271 289.265C416.789 289.782 417.42 290.249 418.162 290.666C418.767 291.006 419.308 291.22 419.785 291.308C420.261 291.394 420.663 291.362 420.988 291.211C421.313 291.058 421.562 290.795 421.737 290.419C421.91 290.044 421.998 289.567 421.998 288.991C421.998 288.343 421.865 287.736 421.6 287.175C421.334 286.614 420.98 286.072 420.54 285.546C420.101 285.021 419.601 284.504 419.042 283.994C418.483 283.485 417.909 282.959 417.322 282.418C416.735 281.877 416.163 281.311 415.604 280.719C415.045 280.126 414.545 279.485 414.105 278.79C413.665 278.094 413.313 277.335 413.046 276.511C412.78 275.687 412.647 274.781 412.647 273.793C412.647 273 412.785 272.31 413.06 271.723C413.335 271.136 413.736 270.704 414.263 270.429C414.789 270.154 415.438 270.06 416.209 270.148C416.979 270.236 417.86 270.557 418.85 271.113C419.958 271.736 420.979 272.507 421.909 273.425C422.839 274.345 423.648 275.368 424.336 276.496L423.621 277.654Z" fill="white"/>
<path d="M81.3772 502.469C81.3772 505.204 79.4039 508.53 76.9685 509.898C74.5331 511.266 72.5586 510.157 72.5586 507.422C72.5586 504.686 74.5331 501.361 76.9685 499.992C79.4039 498.624 81.3772 499.734 81.3772 502.469Z" fill="#0B246E"/>
<path d="M77.7561 500.277C78.6174 502.88 77.7846 506.635 75.8969 508.662C74.0091 510.688 71.7804 510.222 70.9191 507.618C70.0578 505.015 70.8906 501.259 72.7783 499.232C74.6661 497.205 76.8948 497.673 77.7561 500.277Z" fill="#0B246E"/>
<path d="M158.453 426.006C158.453 426.006 158.911 440.444 160.966 445.553C163.021 450.662 168.044 450.219 171.926 449.774C175.809 449.33 185.628 442.472 190.424 438.015C195.22 433.558 205.268 434.412 213.261 423.434C221.254 412.456 213.261 407.791 210.748 407.569C208.237 407.348 195.04 417.612 184.638 413.561L158.453 426.006Z" fill="#0B246E"/>
<path d="M59.109 353.219C59.109 353.219 144.065 326.019 160.207 337.25C175.31 347.759 172.857 379.359 184.638 413.561C184.942 414.445 184.907 415.403 184.521 416.257C182.706 420.263 176.056 431.166 158.238 428.33C158.238 428.33 148.36 403.311 141.647 377.194C141.647 377.194 75.4691 418.674 60.3849 407.921C45.3007 397.167 59.109 353.219 59.109 353.219Z" fill="#425CA3"/>
<path d="M24.4226 471.395L80.2616 461.828L75.1853 502.255L80.2616 503.489L90.0972 461.828L142.129 482.659L144.985 479.677L95.4908 456.891L132.929 440.226L128.804 438.374L87.3149 452.15L65.3497 438.374L59.7387 439.609L79.6272 455.656L25.6914 467.384L24.4226 471.395Z" fill="#0B246E"/>
<path d="M31.4949 465.844C31.4949 468.58 29.5204 471.905 27.085 473.274C24.6495 474.642 22.675 473.532 22.675 470.797C22.675 468.062 24.6495 464.737 27.085 463.369C29.5204 462.001 31.4949 463.109 31.4949 465.844Z" fill="#0B246E"/>
<path d="M33.4823 466.961C33.4823 469.696 31.5078 473.022 29.0724 474.39C26.637 475.758 24.6637 474.649 24.6637 471.914C24.6637 469.178 26.637 465.854 29.0724 464.486C31.5078 463.117 33.4823 464.226 33.4823 466.961Z" fill="#0B246E"/>
<path d="M146.925 478.283C146.925 481.018 144.951 484.343 142.516 485.711C140.081 487.079 138.106 485.97 138.106 483.235C138.106 480.499 140.081 477.175 142.516 475.807C144.951 474.438 146.925 475.548 146.925 478.283Z" fill="#0B246E"/>
<path d="M144.468 476.706C144.468 479.441 142.495 482.767 140.059 484.135C137.624 485.503 135.649 484.394 135.649 481.658C135.649 478.923 137.624 475.599 140.059 474.23C142.495 472.862 144.468 473.97 144.468 476.706Z" fill="#0B246E"/>
<path d="M91.5359 433.771H81.515V457.613H91.5359V433.771Z" fill="#0B246E"/>
<path d="M199.796 438.363C199.796 438.363 200.252 452.802 202.307 457.91C204.363 463.019 209.387 462.574 213.269 462.131C217.152 461.686 226.971 454.83 231.767 450.373C236.563 445.916 246.61 446.77 254.603 435.792C262.596 424.814 254.603 420.149 252.091 419.927C249.58 419.705 237.043 428.919 226.64 424.867L199.796 438.363Z" fill="#0B246E"/>
<path d="M100.667 363.251C100.667 363.251 185.622 336.052 201.763 347.283C217.053 357.921 214.35 390.178 226.64 424.867C226.64 424.867 221.514 441.819 199.796 438.363C199.796 438.363 189.918 413.344 183.205 387.227C183.205 387.227 117.027 428.707 101.943 417.953C86.8587 407.2 100.667 363.251 100.667 363.251Z" fill="#4661AD"/>
<path d="M170.149 398.571C167.158 414.309 139.592 433.535 91.6499 440.527C89.9772 440.778 74.0423 443.826 60.0095 441.152C68.8234 424.711 92.0847 397.429 84.7986 370.553C101.975 373.15 172.771 384.743 170.149 398.571Z" fill="#36E7F7"/>
<path d="M84.7036 374.079L94.8908 384.27C97.2906 398.328 106.019 412.042 119.345 413.076L187.59 390.39V367.311L84.7036 374.079Z" fill="#4661AD"/>
<path d="M107.743 270.992L72.3566 253.561C68.7154 251.767 64.6916 250.787 60.6096 250.838C53.1381 250.932 42.288 253.359 38.0397 265.758C31.2811 285.48 53.1667 365.62 53.1667 365.62C53.1667 365.62 75.1509 392.072 92.5303 390.82C109.91 389.567 134.914 375.325 134.914 363.429C134.914 354.943 128.152 315.001 124.275 292.804C122.632 283.393 116.498 275.305 107.743 270.992Z" fill="#0B246E"/>
<path d="M129.284 224.624C129.46 224.656 133.205 226.316 135.185 227.197C135.813 227.476 135.999 228.26 135.576 228.832L133.537 231.593C132.841 232.536 131.664 233.012 130.536 232.808L125.841 231.958" stroke="#0B246E" stroke-width="1.49468" stroke-miterlimit="10"/>
<path d="M80.1484 247.173L88.1788 225.884L134.462 209.029L130.838 225.623C130.631 226.571 130.256 227.479 129.733 228.301L128.483 230.266C127.797 231.342 127.402 232.579 127.336 233.842L127.238 235.744C127.162 237.213 126.68 238.647 125.849 239.876L120.184 248.257C118.377 250.93 115.118 252.122 112.194 251.18L106.55 249.364L101.171 262.382L80.1484 247.173Z" fill="#FF8B91"/>
<path d="M82.573 236.512L89.6012 239.332C93.18 240.768 97.3148 240.432 100.767 238.424L112.767 231.445L112.212 233.844L113.881 233.83C115.379 233.818 116.785 232.987 117.53 231.673L124.304 219.73C124.304 219.73 135.252 220.768 141.459 208.248C141.459 208.248 132.34 194.527 115.118 192.67C97.8959 190.812 88.456 203.689 88.456 203.689C88.456 203.689 84.9291 202.581 82.2203 206.795C80.0314 210.201 80.164 226.924 80.2951 233.219C80.3261 234.69 81.2113 235.966 82.573 236.512Z" fill="#0B246E"/>
<path d="M112.705 237.576L115.455 230.771C115.455 230.771 114.836 227.076 111.435 227.837C108.034 228.597 107.566 237.507 109.298 238.088C111.029 238.669 112.705 237.576 112.705 237.576Z" fill="#FF8B91"/>
<path d="M115.625 230.155L134.552 231.687L136.329 229.169L114.613 228.366L115.625 230.155Z" fill="#36E7F7"/>
<path d="M98.0082 402.522C100.638 428.805 73.2583 448.756 48.3124 438.335C25.0582 428.62 8.01017 407.053 2.95399 369.792C-2.69145 328.306 4.93204 302.056 10.5288 289.291C13.2624 283.096 19.9687 279.482 26.82 280.406C80.3757 287.664 93.7563 373.249 93.7563 373.249C93.7563 373.249 96.4424 386.869 98.0082 402.522Z" fill="#36E7F7"/>
<path d="M200.681 307.357C200.681 307.357 208.531 296.358 210.63 295.517C215.913 293.402 214.837 295.952 218.873 295.541C221.843 295.239 224.12 294.352 226.47 294.002C227.276 293.882 228.269 294.222 229.061 294.97C229.683 295.557 230.181 296.394 230.367 297.456C235.667 298.308 233.996 301.213 233.996 301.213C239.297 301.241 237.524 310.483 234.859 308.738C234.987 303.422 230.959 307.687 228.246 310.244C225.538 312.795 219.204 314.588 217.79 314.44C216.376 314.292 206.205 315.067 206.205 315.067L200.681 307.357Z" fill="#FF8B91"/>
<path d="M116.655 276.092C116.655 276.092 101.691 270.201 92.6815 281.23C82.6919 293.457 92.132 305.208 92.132 305.208L144.491 341.523C150.499 345.69 158.49 346.244 165.175 342.958L211.783 317.166C211.783 317.166 211.015 306.692 203.035 303.504C201.377 302.843 162.972 311.845 162.972 311.845C160.373 312.636 157.551 312.048 155.564 310.302L116.655 276.092Z" fill="#0B246E"/>
<path d="M137.034 283.093C137.034 283.093 141.928 270.524 143.738 269.16C145.549 267.797 161.603 265.742 163.04 265.363C164.477 264.984 167.777 267.74 167.777 267.74C167.777 267.74 172.888 267.424 173.893 267.562C174.898 267.701 180.442 269.846 178.932 271.374C177.987 272.331 175.192 271.11 171.831 271.537C168.564 271.953 163.562 274.121 162.486 275.679C158.176 281.925 172.87 275.943 173.147 277.976C173.727 282.237 157.708 286.506 156.243 286.651C154.777 286.795 144.752 289.678 144.752 289.678L137.034 283.093Z" fill="#FF8B91"/>
<path d="M95.8068 287.056L138.056 277.543C146.72 277.543 147.995 289.583 147.995 289.583L118.861 309.668L95.8068 287.056Z" fill="#0B246E"/>
<path d="M134.914 436.352C134.914 439.087 132.941 442.412 130.505 443.78C128.07 445.148 126.095 444.04 126.095 441.305C126.095 438.57 128.07 435.244 130.505 433.876C132.941 432.508 134.914 433.617 134.914 436.352Z" fill="#0B246E"/>
<path d="M132.887 435.214C132.887 437.949 130.913 441.274 128.477 442.642C126.042 444.01 124.068 442.901 124.068 440.166C124.068 437.43 126.042 434.106 128.477 432.738C130.913 431.369 132.887 432.479 132.887 435.214Z" fill="#0B246E"/>
<path d="M170.149 398.571C117.991 427.392 102.423 406.387 98.184 396.294C97.0566 393.61 96.7311 391.697 96.7311 391.697C96.7311 391.697 86.1435 338.302 71.9669 313.671C60.0096 292.895 44.0629 279.077 19.2108 278.346" stroke="white" stroke-width="7.9716" stroke-miterlimit="10" stroke-linecap="round"/>
<path d="M78.7101 246.954L72.3566 253.561L107.743 270.992L105.272 258.302L78.7101 246.954Z" fill="#4661AD"/>
</svg>
