<svg width="500" height="499" viewBox="0 0 500 499" fill="none" xmlns="http://www.w3.org/2000/svg">
<g clip-path="url(#clip0_308_2915)">
<path fill-rule="evenodd" clip-rule="evenodd" d="M488.662 226.836L271.204 9.39388C258.69 -3.13129 238.377 -3.13129 225.846 9.39388L180.691 54.549L237.973 111.83C251.285 107.333 266.548 110.349 277.16 120.962C287.822 131.64 290.817 147.034 286.21 160.39L341.415 215.595C354.771 210.993 370.181 213.972 380.848 224.655C395.756 239.558 395.756 263.712 380.848 278.625C365.935 293.538 341.781 293.538 326.862 278.625C315.648 267.4 312.878 250.93 318.556 237.115L267.072 185.632L267.067 321.113C270.701 322.917 274.133 325.316 277.16 328.332C292.068 343.234 292.068 367.389 277.16 382.313C262.247 397.221 238.082 397.221 223.191 382.313C208.283 367.389 208.283 343.234 223.191 328.332C226.874 324.654 231.136 321.873 235.683 320.004V183.26C231.136 181.402 226.879 178.637 223.191 174.932C211.895 163.652 209.179 147.078 214.966 133.208L158.505 76.7358L9.39932 225.83C-3.13132 238.366 -3.13132 258.679 9.39932 271.204L226.857 488.651C239.377 501.176 259.684 501.176 272.22 488.651L488.662 272.215C501.187 259.684 501.187 239.361 488.662 226.836" fill="#DE4C36"/>
</g>
<defs>
<clipPath id="clip0_308_2915">
<rect width="500" height="498.054" fill="white"/>
</clipPath>
</defs>
</svg>
