<svg width="500" height="488" viewBox="0 0 500 488" fill="none" xmlns="http://www.w3.org/2000/svg">
<path fill-rule="evenodd" clip-rule="evenodd" d="M250.002 0C111.948 0 0 111.927 0 250.002C0 360.46 71.6332 454.171 170.967 487.228C183.461 489.543 188.048 481.805 188.048 475.202C188.048 469.24 187.816 449.547 187.709 428.657C118.158 443.78 103.482 399.16 103.482 399.16C92.1093 370.263 75.7234 362.579 75.7234 362.579C53.0408 347.063 77.4332 347.382 77.4332 347.382C102.538 349.145 115.757 373.144 115.757 373.144C138.054 411.364 174.241 400.315 188.508 393.927C190.751 377.769 197.23 366.74 204.38 360.497C148.851 354.175 90.4782 332.739 90.4782 236.945C90.4782 209.65 100.244 187.348 116.237 169.841C113.641 163.544 105.084 138.116 118.659 103.68C118.659 103.68 139.652 96.9613 187.427 129.307C207.369 123.767 228.756 120.989 250.002 120.894C271.248 120.989 292.652 123.767 312.631 129.307C360.348 96.9613 381.312 103.68 381.312 103.68C394.92 138.116 386.359 163.544 383.763 169.841C399.793 187.348 409.493 209.65 409.493 236.945C409.493 332.966 351.008 354.109 295.338 360.298C304.306 368.056 312.296 383.271 312.296 406.595C312.296 440.046 312.006 466.967 312.006 475.202C312.006 481.855 316.506 489.65 329.178 487.195C428.458 454.101 500 360.422 500 250.002C500 111.927 388.069 0 250.002 0ZM93.6339 356.133C93.0833 357.375 91.1292 357.748 89.3491 356.895C87.5358 356.079 86.5174 354.386 87.1052 353.14C87.6434 351.861 89.6016 351.505 91.4108 352.362C93.2282 353.177 94.2632 354.887 93.6339 356.133ZM105.931 367.106C104.739 368.211 102.408 367.698 100.827 365.951C99.1914 364.208 98.8851 361.877 100.094 360.755C101.323 359.65 103.584 360.167 105.223 361.91C106.859 363.674 107.177 365.988 105.931 367.106ZM114.368 381.145C112.836 382.209 110.331 381.211 108.783 378.988C107.251 376.765 107.251 374.099 108.816 373.031C110.368 371.963 112.836 372.923 114.405 375.13C115.933 377.39 115.933 380.056 114.368 381.145ZM128.635 397.405C127.265 398.916 124.347 398.51 122.21 396.448C120.024 394.432 119.416 391.571 120.79 390.06C122.177 388.545 125.112 388.972 127.265 391.017C129.434 393.029 130.097 395.91 128.635 397.405ZM147.075 402.894C146.471 404.852 143.66 405.742 140.828 404.91C138.001 404.053 136.15 401.759 136.721 399.78C137.309 397.81 140.133 396.882 142.985 397.773C145.808 398.625 147.663 400.902 147.075 402.894ZM168.06 405.222C168.131 407.284 165.73 408.993 162.757 409.031C159.768 409.097 157.35 407.429 157.317 405.4C157.317 403.318 159.665 401.624 162.654 401.575C165.626 401.517 168.06 403.173 168.06 405.222ZM188.676 404.432C189.032 406.444 186.966 408.51 184.014 409.06C181.112 409.59 178.426 408.348 178.057 406.353C177.697 404.291 179.8 402.225 182.698 401.691C185.654 401.178 188.299 402.387 188.676 404.432Z" fill="black"/>
</svg>
