<svg width="108" height="97" viewBox="0 0 108 97" fill="none" xmlns="http://www.w3.org/2000/svg">
<path d="M19.9193 82.453L12.3356 6.0625H95.6644L88.0706 82.4409L53.9494 90.9375L19.9193 82.453Z" fill="#E44F26"/>
<path d="M54 84.4446L81.5738 77.5788L88.0605 12.3099H54V84.4446Z" fill="#F1662A"/>
<path d="M54 40.64H40.1962L39.2445 31.0461H54V21.6765H27.8438L28.0935 24.1924L30.6551 50.0096H54V40.64V40.64Z" fill="#EBEBEB"/>
<path d="M53.9998 64.9718L53.9526 64.9839L42.3358 62.1679L41.5934 54.6959H31.1207L32.5821 69.4035L53.9526 74.7324L53.9998 74.7203V64.9718Z" fill="#EBEBEB"/>
<path d="M53.9631 40.64V50.0095H66.8083L65.6001 62.1618L53.9631 64.9809V74.7294L75.3504 69.4035L75.5057 67.8212L77.9559 43.1559L78.2124 40.64H53.9631V40.64Z" fill="white"/>
<path d="M53.9631 21.6765V31.0461H79.1608L79.3701 28.9424L79.846 24.1924L80.0957 21.6765H53.9631V21.6765Z" fill="white"/>
</svg>
