<svg width="108" height="105" viewBox="0 0 108 105" fill="none" xmlns="http://www.w3.org/2000/svg">
<g clip-path="url(#clip0_9_19)">
<path d="M-0.413086 0.0867004H107.587V105.087H-0.413086V0.0867004Z" fill="#F7DF1E"/>
<path d="M28.3973 87.7456L36.6618 82.8827C38.2565 85.6312 39.7069 87.9568 43.1861 87.9568C46.521 87.9568 48.6241 86.6886 48.6241 81.7552V48.2053H58.7731V81.8947C58.7731 92.1145 52.6112 96.7665 43.6211 96.7665C35.5021 96.7665 30.7893 92.6785 28.3969 87.7447" fill="black"/>
<path d="M64.2857 86.6882L72.5494 82.0366C74.725 85.4905 77.5524 88.0277 82.5542 88.0277C86.7598 88.0277 89.4413 85.9835 89.4413 83.1641C89.4413 79.7811 86.6864 78.5827 82.0466 76.6098L79.5099 75.5516C72.1874 72.5218 67.3304 68.7155 67.3304 60.6806C67.3304 53.2797 73.1299 47.6409 82.1922 47.6409C88.6443 47.6409 93.2841 49.8262 96.6186 55.5351L88.7161 60.4693C86.9758 57.4387 85.0917 56.2406 82.1918 56.2406C79.2192 56.2406 77.3343 58.0732 77.3343 60.4693C77.3343 63.4294 79.2192 64.6283 83.5688 66.4609L86.1059 67.5179C94.7333 71.1129 99.5903 74.7776 99.5903 83.0234C99.5903 91.9049 92.4134 96.7678 82.7714 96.7678C73.3472 96.7678 67.2574 92.3979 64.2853 86.6886" fill="black"/>
</g>
<defs>
<clipPath id="clip0_9_19">
<rect width="108" height="105" fill="white"/>
</clipPath>
</defs>
</svg>
