<svg width="108" height="105" viewBox="0 0 108 105" fill="none" xmlns="http://www.w3.org/2000/svg">
<path d="M54 60.6178C58.6599 60.6178 62.4375 56.9451 62.4375 52.4147C62.4375 47.8842 58.6599 44.2115 54 44.2115C49.3401 44.2115 45.5625 47.8842 45.5625 52.4147C45.5625 56.9451 49.3401 60.6178 54 60.6178Z" fill="#00D8FF"/>
<path d="M54 71.2228C43.8586 71.4613 33.7426 70.1322 24.03 67.2853C19.5433 65.9025 15.3587 63.7243 11.6876 60.8606C10.2868 59.8823 9.12017 58.621 8.26788 57.1631C7.41559 55.7053 6.89779 54.0854 6.75 52.4147C6.75 46.9908 12.879 41.6751 23.1457 38.197C33.118 35.1151 43.5372 33.6215 54 33.7739C64.3231 33.6337 74.6028 35.1003 84.4492 38.1183C88.7702 39.4575 92.8129 41.5305 96.39 44.2411C97.7669 45.1738 98.916 46.3894 99.7559 47.8019C100.596 49.2144 101.106 50.7892 101.25 52.4147C101.25 58.0519 94.3988 63.7645 83.3625 67.3148C73.838 70.069 63.9354 71.387 54 71.2228V71.2228ZM54 37.6983C43.9901 37.5682 34.0228 38.9881 24.4721 41.9048C15.0221 45.1106 10.7865 49.4944 10.7865 52.4048C10.7865 55.4498 15.3394 60.2372 25.3361 63.5611C34.6277 66.2709 44.3023 67.5323 54 67.2984C63.5054 67.4637 72.9807 66.2133 82.0969 63.5906C92.475 60.247 97.2 55.4531 97.2 52.4147C97.0297 51.372 96.6389 50.375 96.0522 49.4866C95.4654 48.5982 94.6956 47.8377 93.7913 47.2533C90.5909 44.8486 86.9795 43.0114 83.1229 41.8261C73.7033 38.9509 63.8718 37.5574 54 37.6983V37.6983Z" fill="#00D8FF"/>
<path d="M34.8299 93.3286C33.2555 93.3637 31.6996 92.9923 30.3209 92.2523C25.4879 89.542 23.8139 81.7261 25.8423 71.3409C28.0787 61.4023 31.9537 51.8808 37.3173 43.1451C42.3485 34.3813 48.7895 26.4564 56.3961 19.6711C59.7481 16.7006 63.6148 14.331 67.8172 12.6722C69.3371 11.9796 70.9952 11.6206 72.6738 11.6206C74.3524 11.6206 76.0104 11.9796 77.5304 12.6722C82.5558 15.4875 84.2197 24.1106 81.874 35.1783C79.5685 44.5776 75.7942 53.5777 70.6825 61.8647C65.8284 70.5251 59.5902 78.3809 52.201 85.1386C48.7274 88.2255 44.6962 90.6607 40.3109 92.3212C38.5553 92.9547 36.7022 93.2953 34.8299 93.3286V93.3286ZM40.8138 45.0942C35.6976 53.4592 31.9836 62.5626 29.8113 72.0628C27.9449 81.6276 29.737 87.3797 32.3425 88.8431C35.0425 90.3623 41.5968 88.9219 49.555 82.1625C56.6089 75.6884 62.5631 68.1686 67.1962 59.8828C72.0931 51.9603 75.7136 43.3556 77.932 34.3678C80.1393 23.9498 78.2324 17.5711 75.5257 16.0551C74.5112 15.6772 73.4271 15.5081 72.3419 15.5583C71.2567 15.6086 70.1941 15.8772 69.2212 16.3472C65.4806 17.8478 62.0416 19.9783 59.0624 22.6406C51.7949 29.1401 45.6424 36.7268 40.8374 45.1139L40.8138 45.0942Z" fill="#00D8FF"/>
<path d="M73.16 93.3713C68.5869 93.3713 62.7785 90.6806 56.7305 85.6242C48.9906 78.7772 42.4407 70.7582 37.3344 61.8778C32.0381 53.2624 28.1938 43.8787 25.9472 34.0823C24.9728 29.7724 24.7923 25.3286 25.4139 20.9573C25.5576 19.3358 26.0655 17.7646 26.9017 16.3546C27.7379 14.9446 28.8821 13.7302 30.2537 12.7969C35.2723 9.97171 43.7874 12.8756 52.478 20.3766C59.7025 27.0119 65.8376 34.6851 70.6693 43.1288C75.9623 51.543 79.847 60.7213 82.1781 70.3205C83.1943 74.7886 83.3511 79.401 82.6404 83.9245C82.4713 85.5928 81.9332 87.2057 81.0629 88.6528C80.1925 90.0998 79.0106 91.3468 77.5982 92.3081C76.242 93.0389 74.7102 93.4059 73.16 93.3713V93.3713ZM40.8275 59.9025C45.7261 68.3892 51.9829 76.0638 59.363 82.6383C66.9534 88.9875 72.9744 90.3525 75.563 88.8727C78.263 87.3469 80.2543 81.1191 78.2023 71.0424C75.9541 61.8776 72.2282 53.1166 67.1627 45.0844C62.5518 37.0031 56.6959 29.6555 49.7983 23.2969C41.6173 16.2356 34.982 14.6573 32.2787 16.1798C31.4361 16.8455 30.7446 17.6739 30.2479 18.6125C29.7513 19.5512 29.4602 20.5797 29.393 21.6333C28.8564 25.5317 29.0312 29.4916 29.9094 33.3309C32.0704 42.6994 35.7574 51.6719 40.8309 59.9091L40.8275 59.9025Z" fill="#00D8FF"/>
</svg>
